<svg width="90" height="87" viewBox="0 0 90 87" fill="none" xmlns="http://www.w3.org/2000/svg">
<path d="M0.617188 25.7859C0.617188 20.3594 4.42023 15.6756 9.73104 14.5613L75.5606 0.748832C82.687 -0.74645 89.3848 4.69179 89.3848 11.9734V75.031C89.3848 81.3651 84.2499 86.5 77.9158 86.5H12.0862C5.75204 86.5 0.617188 81.3651 0.617188 75.031V25.7859Z" stroke="#002A64"/>
<path d="M66.3684 61.4424C66.2018 61.4228 66.0327 61.4326 65.8649 61.4326C56.9846 61.4314 48.1042 61.4314 39.2251 61.4314H38.6445C38.2966 60.1281 37.9634 58.8787 37.6168 57.5791H38.228C45.4719 57.5791 52.7171 57.5767 59.961 57.5853C60.522 57.5853 60.9324 57.4346 61.1553 56.8748C63.1384 51.8834 65.1325 46.8957 67.1168 41.9044C67.4646 41.0298 67.0984 40.5007 66.1552 40.497C64.9487 40.4933 63.741 40.4884 62.5333 40.5007C62.243 40.5043 62.1082 40.4492 62.0739 40.1148C61.4603 34.0811 56.7874 29.3322 50.7242 28.5605C45.0641 27.8403 39.4749 31.1205 37.3314 36.4145C36.8072 37.7116 36.5095 39.0602 36.3821 40.4958C35.3544 40.4958 34.3488 40.4798 33.3444 40.5043C33.0002 40.5129 32.8851 40.3916 32.7994 40.0695C31.8072 36.3704 30.7967 32.6761 29.7911 28.9795C29.5779 28.1955 29.355 28.0057 28.587 28.0045C26.7828 27.9996 24.9797 27.9971 23.1767 28.0057C22.4871 28.0094 22.1172 28.3486 22.1172 28.9366C22.116 29.5221 22.4994 29.8663 23.1743 29.8724C23.8626 29.8797 24.5498 29.8748 25.2382 29.8748H28.1179C28.1681 30.0439 28.2097 30.1749 28.2453 30.3072C31.1409 40.9061 34.0353 51.505 36.9296 62.1051C37.1991 63.0935 37.3706 63.2234 38.3958 63.2246H39.8204C38.462 65.6351 39.3182 67.8118 40.6753 68.9582C42.1476 70.2027 44.2728 70.3166 45.8639 69.2106C46.6809 68.6422 47.2505 67.8804 47.553 66.9323C47.9646 65.6486 47.7367 64.4348 47.0398 63.2577H57.1511C56.1223 65.7037 56.3856 67.4798 57.962 68.8799C59.3388 70.1011 61.328 70.3852 62.8566 69.4261C65.2807 67.9073 65.6775 65.7748 64.4612 63.2479C64.607 63.2381 64.7123 63.227 64.8189 63.2258C65.3382 63.2185 65.86 63.2417 66.3757 63.2001C66.8914 63.1597 67.2111 62.7616 67.1951 62.2692C67.1817 61.8246 66.8644 61.5024 66.3684 61.4424ZM50.3151 45.0658V42.3H54.4429C54.3511 43.2223 54.2604 44.1324 54.1686 45.0658H50.3151ZM53.6027 46.9901C53.4238 48.9082 51.5326 51.7475 50.2208 52.0488V46.9901H53.6027ZM55.1326 48.4195C55.2416 48.1696 55.3089 47.9014 55.3824 47.638C55.5686 46.9692 55.5662 46.968 56.2827 46.968H58.6443C57.4561 48.9854 55.8258 50.3511 53.8526 51.3004C54.28 50.3425 54.7136 49.3847 55.1326 48.4195ZM55.9704 45.0743C56.0647 44.152 56.159 43.2481 56.2558 42.3049H60.2084C59.9965 43.2481 59.7895 44.1679 59.585 45.0743H55.9704ZM59.7773 38.3877C59.9414 39.032 60.048 39.691 60.1864 40.3806H56.2607C56.1664 39.4656 56.072 38.5494 55.9716 37.5756H58.7251C59.5507 37.5756 59.5703 37.5707 59.7773 38.3877ZM58.6565 35.7077H56.7714C55.5772 35.7077 55.6139 35.693 55.2085 34.6016C54.8006 33.5078 54.3107 32.4459 53.8538 31.3643C55.8724 32.2536 57.4427 33.6916 58.6565 35.7077ZM50.1926 30.4934C52.2737 31.6901 53.0037 33.6217 53.6909 35.7077H52.733C52.0005 35.7077 51.2668 35.7028 50.5331 35.7089C50.32 35.7114 50.1877 35.671 50.1889 35.4125C50.1963 33.8238 50.1926 32.2364 50.1926 30.4934ZM50.1326 37.5756H50.9802C51.8805 37.5756 52.782 37.5683 53.6835 37.5842C53.8183 37.5867 54.0571 37.6847 54.0681 37.7655C54.1918 38.6192 54.2788 39.4791 54.3793 40.3757H50.1326V37.5756ZM48.3051 30.5902V35.6759H44.9244C44.9893 33.9561 46.8769 31.0801 48.3051 30.5902ZM44.3291 45.0646C44.2385 44.163 44.1454 43.2493 44.0486 42.2914H48.2953V45.0646H44.3291ZM48.2892 46.9888V52.1468C46.2424 51.004 45.5173 49.0589 44.8362 46.9888H48.2892ZM44.6182 51.2722C42.5996 50.3438 41.0097 48.9376 39.7677 46.968H41.3894C41.7716 46.968 42.1525 46.9778 42.5335 46.9643C42.7601 46.9582 42.8911 47.0109 42.9585 47.2595C43.3394 48.662 43.8784 49.9996 44.6182 51.2722ZM44.0633 40.3696C44.1613 39.4424 44.2569 38.5298 44.3536 37.5977H48.2144V40.3696H44.0633ZM44.6133 31.3067C43.8429 32.5647 43.3002 33.8961 42.9328 35.3047C42.9009 35.4235 42.7343 35.5889 42.6265 35.5913C41.7152 35.6146 40.8027 35.6048 39.7738 35.6048C41.0036 33.6401 42.5959 32.2401 44.6133 31.3067ZM38.8698 37.7496C38.9017 37.6736 39.0193 37.5854 39.0977 37.5842C40.2074 37.5732 41.3159 37.5769 42.4551 37.5769C42.3693 38.5347 42.2873 39.4522 42.2027 40.3806H38.2942C38.3566 39.4546 38.5257 38.5837 38.8698 37.7496ZM42.1697 42.2951C42.2603 43.2199 42.3485 44.1263 42.4416 45.0939H40.0016C38.9041 45.0939 38.8943 45.0964 38.62 44.0222C38.4779 43.4661 38.3774 42.9002 38.2488 42.2951H42.1697ZM37.0534 55.7173C35.8334 51.2404 34.6183 46.7867 33.3934 42.2927H36.3833C36.5095 43.6878 36.7729 45.0364 37.3375 46.298C39.3537 50.8105 42.8127 53.526 47.7061 54.1605C54.6487 55.062 60.8993 50.187 61.9159 43.2444C62.0592 42.2669 62.0592 42.2669 63.0796 42.2669H64.8262C64.7638 42.4433 64.7209 42.5842 64.6658 42.7214C62.9963 46.9153 61.3243 51.1093 59.6609 55.307C59.547 55.5961 59.4172 55.7259 59.0767 55.7259C51.8805 55.7136 44.6856 55.7173 37.4894 55.7173H37.0534ZM43.3468 68.2C42.0337 68.2025 40.8921 67.0548 40.9007 65.7393C40.9093 64.4152 42.046 63.3091 43.3811 63.3263C44.6954 63.3434 45.7806 64.4531 45.7733 65.7748C45.7659 67.0817 44.65 68.1976 43.3468 68.2ZM60.6433 68.2C59.3204 68.2086 58.1776 67.0719 58.1825 65.7515C58.1862 64.4397 59.2971 63.3299 60.609 63.325C61.9404 63.3214 63.0771 64.4519 63.0673 65.7723C63.0563 67.1062 61.9723 68.1915 60.6433 68.2Z" fill="#002A64"/>
</svg>
