<svg width="90" height="87" viewBox="0 0 90 87" fill="none" xmlns="http://www.w3.org/2000/svg">
<path d="M0.617188 25.7859C0.617188 20.3594 4.42023 15.6756 9.73104 14.5613L75.5606 0.748832C82.687 -0.74645 89.3848 4.69179 89.3848 11.9734V75.031C89.3848 81.3651 84.2499 86.5 77.9158 86.5H12.0862C5.75204 86.5 0.617188 81.3651 0.617188 75.031V25.7859Z" stroke="#002A64"/>
<path d="M62.7627 52.9845C61.8067 52.0458 60.3641 51.9396 59.2517 52.7366C59.0257 52.896 58.8172 53.0908 58.5912 53.2679C57.0964 52.4001 55.6538 51.5145 54.1764 50.7175C53.6723 50.4341 53.4985 50.1153 53.4985 49.5486C53.5333 47.069 53.4812 44.5895 53.5333 42.1099C53.5507 41.4723 53.3595 41.1004 52.8033 40.7816C50.6307 39.5418 48.4754 38.2666 46.3375 36.9737C46.0768 36.8143 45.7292 36.4955 45.7292 36.2298C45.6771 34.3702 45.6944 32.5282 45.6944 30.6685C45.8509 30.6154 45.9552 30.5623 46.0594 30.5269C47.5542 29.9247 48.2321 28.7735 47.9887 27.2857C47.7802 26.0282 46.6504 25.0541 45.3642 25.001C44.0954 24.9656 42.8961 25.8865 42.618 27.144C42.2877 28.6141 42.9656 29.8184 44.4604 30.5269C44.6863 30.6331 44.9123 31.0228 44.9297 31.2884C44.9818 32.847 45.0166 34.4233 44.947 35.9819C44.9297 36.3361 44.6516 36.8143 44.3561 36.9914C42.2008 38.3197 40.0108 39.5949 37.8208 40.8524C37.3515 41.1181 37.1951 41.4369 37.2125 41.9682C37.2298 44.5363 37.2125 47.1044 37.2298 49.6725C37.2298 50.2039 37.0908 50.5227 36.6215 50.7883C35.3353 51.5145 34.0491 52.2761 32.7977 53.0554C32.3805 53.321 32.085 53.3742 31.6679 52.9845C30.9205 52.2938 29.9993 52.2052 29.0607 52.524C27.6876 52.9668 26.9403 54.4014 27.2879 55.8183C27.6181 57.2175 28.9217 58.1385 30.2774 57.9436C31.7722 57.7311 32.8498 56.509 32.6586 54.9859C32.5543 54.1357 32.8498 53.7992 33.4929 53.445C34.6401 52.8251 35.7698 52.1521 36.8648 51.4437C37.4037 51.0894 37.8034 51.0894 38.3422 51.4259C40.4453 52.7189 42.6006 53.9232 44.7211 55.1984C45.173 55.4641 45.5032 55.4818 45.9725 55.1984C48.1625 53.8701 50.3873 52.5949 52.5773 51.2843C52.9945 51.0186 53.3247 51.0009 53.7593 51.2665C55.0281 52.0458 56.3143 52.7897 57.6005 53.5159C58.0698 53.7815 58.2436 54.0118 58.1219 54.6139C57.8786 55.96 58.6955 57.2352 59.9643 57.6603C61.1984 58.0853 62.5541 57.5894 63.2146 56.4559C63.875 55.3401 63.6839 53.9055 62.7627 52.9845ZM29.9472 57.1998C28.8174 57.1998 27.931 56.2788 27.9484 55.1276C27.9657 54.0118 28.8522 53.1085 29.9298 53.0908C31.0422 53.0731 31.9808 54.0295 31.9981 55.1453C31.9808 56.2788 31.0769 57.1998 29.9472 57.1998ZM43.2611 27.7816C43.2785 26.6658 44.1475 25.798 45.2599 25.7803C46.3897 25.7626 47.3109 26.6658 47.3109 27.8171C47.3109 28.9506 46.3897 29.8893 45.2773 29.8893C44.1649 29.8715 43.2437 28.9151 43.2611 27.7816ZM52.7859 46.0063C52.7859 47.2107 52.7685 48.4328 52.8033 49.6371C52.8207 50.133 52.699 50.4341 52.2471 50.6998C50.1092 51.9219 47.9887 53.2148 45.8509 54.4368C45.6075 54.5785 45.173 54.5785 44.9297 54.4368C42.757 53.1971 40.6365 51.9219 38.4987 50.6998C38.0468 50.4518 37.9251 50.133 37.9251 49.6371C37.9425 47.2107 37.9425 44.802 37.9251 42.3756C37.9251 41.8797 38.0468 41.5609 38.4987 41.3129C40.6365 40.0731 42.757 38.7979 44.8949 37.5759C45.1382 37.4342 45.5728 37.4342 45.8161 37.5759C47.954 38.7979 50.0745 40.0731 52.2123 41.3129C52.6642 41.5609 52.7859 41.8797 52.7859 42.3756C52.7512 43.5799 52.7859 44.7843 52.7859 46.0063ZM60.816 57.0935C59.7036 57.0758 58.7998 56.1017 58.8345 54.9682C58.8693 53.8169 59.8253 52.896 60.9203 52.9491C62.0326 53.0022 62.9191 53.9941 62.8669 55.1099C62.8322 56.2079 61.8762 57.1112 60.816 57.0935Z" fill="#002A64"/>
<path d="M53.8139 53.144C53.6923 53.144 53.5706 53.144 53.4663 53.144C52.9101 54.1359 52.3713 55.1454 51.763 56.1195C51.5718 56.4029 51.1546 56.6863 50.8418 56.6863C47.1917 56.7217 43.5417 56.7217 39.8917 56.6863C39.5962 56.6863 39.1964 56.4383 39.0226 56.1726C38.4838 55.3756 38.0319 54.5078 37.58 53.6577C37.3019 53.1618 37.0412 53.1086 36.7109 53.6222C37.2845 54.6495 37.8929 55.659 38.4317 56.704C38.7445 57.3062 39.1095 57.5187 39.7874 57.501C41.5081 57.4478 43.2462 57.4833 45.0191 57.4833V61.3443C44.7236 61.4683 44.4455 61.5568 44.1848 61.6985C42.7943 62.4247 42.2903 64.1958 43.055 65.5772C43.646 66.6399 44.8279 67.1889 46.0098 66.941C47.1743 66.693 48.026 65.7721 48.1824 64.5854C48.3389 63.2925 47.7132 62.159 46.5834 61.6099C46.3227 61.486 45.8881 61.2911 45.8708 61.114C45.8012 59.9274 45.836 58.723 45.836 57.4656C47.6958 57.4656 49.4686 57.501 51.2241 57.4478C51.537 57.4301 51.9715 57.1822 52.1453 56.8988C52.7711 55.9424 53.3099 54.9329 53.8487 53.9233C53.953 53.7285 53.8313 53.4097 53.8139 53.144ZM47.4698 64.1781C47.4698 65.3293 46.566 66.2325 45.4189 66.2325C44.2891 66.2325 43.4027 65.2939 43.42 64.1426C43.4374 63.0445 44.3412 62.1413 45.4189 62.1236C46.5312 62.1059 47.4698 63.0445 47.4698 64.1781Z" fill="#002A64"/>
<path d="M63.5113 36.46C63.2679 34.9192 61.9296 33.8565 60.4696 34.0513C58.9227 34.2639 57.9146 35.5391 58.0189 37.1685C58.0362 37.4873 58.0362 37.9655 57.8624 38.0895C56.9065 38.7271 55.8984 39.2938 54.8903 39.896C53.9517 38.2489 53.0826 36.6726 52.1788 35.1317C52.0398 34.8838 51.7443 34.565 51.5183 34.565C50.1452 34.5118 48.7548 34.5295 47.3643 34.5295C47.3469 35.2557 47.3469 35.2734 47.8857 35.2911C48.8417 35.3088 49.7976 35.3265 50.7536 35.2911C51.2576 35.2734 51.5357 35.4682 51.7791 35.911C53.5693 39.1167 55.3943 42.287 57.1672 45.5104C57.3236 45.7938 57.2889 46.3074 57.1324 46.6085C56.6458 47.6003 56.0548 48.5567 55.4812 49.5663C55.6898 49.7079 55.8636 49.8319 56.0896 49.9736C56.75 48.8224 57.341 47.7243 58.0015 46.6439C58.2796 46.1834 58.2622 45.8292 57.9841 45.3687C57.0629 43.8101 56.1939 42.2162 55.3074 40.6576C55.3769 40.5513 55.3943 40.4982 55.4465 40.4628C56.246 39.9846 57.0629 39.5241 57.8277 39.0104C58.297 38.6916 58.6272 38.6562 59.0965 39.0813C59.9655 39.8429 61.217 39.8606 62.1903 39.2761C63.1463 38.6739 63.6677 37.5404 63.5113 36.46ZM60.7477 38.9042C59.6701 38.8865 58.7662 37.9655 58.7315 36.8851C58.7141 35.7339 59.6005 34.7952 60.7303 34.7952C61.8775 34.7775 62.7639 35.6808 62.7639 36.8497C62.7813 37.9832 61.8775 38.9219 60.7477 38.9042Z" fill="#002A64"/>
<path d="M43.2245 34.5295C41.9904 34.5295 40.8085 34.565 39.6266 34.5118C39.053 34.4941 38.7402 34.6889 38.4621 35.1848C37.593 36.7788 36.6892 38.3374 35.768 39.9668C34.8468 39.4178 33.9951 38.9042 33.1261 38.4437C32.6568 38.1957 32.4656 37.9655 32.5699 37.3633C32.8132 36.0173 31.9963 34.7421 30.7275 34.317C29.5282 33.9096 28.1551 34.4056 27.512 35.5214C26.8341 36.6903 27.0427 38.178 28.0334 39.0636C29.0242 39.9668 30.4668 40.02 31.5618 39.1875C31.753 39.0282 31.9616 38.8688 32.1527 38.7094C33.2478 39.347 34.2906 39.9668 35.403 40.6221C34.4818 42.2693 33.578 43.8456 32.7089 45.4219C32.5699 45.6698 32.4656 46.0772 32.5699 46.2897C33.213 47.5295 33.9256 48.7338 34.6556 50.009C34.899 49.8319 35.0728 49.7079 35.2466 49.584C34.6556 48.539 34.0647 47.5472 33.5432 46.5377C33.4042 46.2543 33.3694 45.7761 33.5085 45.5281C35.2987 42.287 37.1237 39.0636 38.9661 35.8756C39.1226 35.5922 39.5745 35.362 39.9047 35.3265C40.8607 35.2557 41.8166 35.2734 42.7726 35.3088C43.4157 35.3088 43.4331 35.0254 43.2245 34.5295ZM29.7715 39.0459C28.6591 38.9927 27.7727 37.9832 27.8422 36.8674C27.9118 35.7693 28.8503 34.8838 29.928 34.9192C31.0577 34.9546 31.9442 35.9287 31.892 37.0622C31.8399 38.2134 30.8839 39.1167 29.7715 39.0459Z" fill="#002A64"/>
<path d="M46.2 46.3075C46.9995 45.9533 47.2602 45.3511 47.0342 44.6072C46.8083 43.8811 46.1826 43.8102 45.5395 43.8279C44.8268 43.8279 44.1142 43.8279 43.2973 43.8279C43.2973 45.174 43.2799 46.4492 43.3147 47.689C43.3147 47.8307 43.4885 47.9901 43.5928 48.1317C43.7145 47.9723 43.9057 47.8307 43.923 47.6535C43.9752 47.2285 43.9404 46.8034 43.9404 46.4315C45.0876 46.0418 45.7133 46.4315 46.0957 47.4056C46.2521 47.7775 46.3911 48.362 47.1038 48.0255C46.8257 47.4941 46.5302 46.9451 46.2 46.3075ZM45.8523 45.6522C45.2614 45.7407 44.653 45.6876 44.0099 45.6876V44.4301C44.653 44.4301 45.2614 44.377 45.8523 44.4655C46.0783 44.501 46.3911 44.8552 46.4085 45.0854C46.4085 45.2625 46.0609 45.6345 45.8523 45.6522Z" fill="#002A64"/>
<path d="M42.6694 47.9011C42.5129 47.9896 42.3565 48.149 42.2001 48.149C41.2267 48.1668 40.236 48.1668 39.1758 48.1668V43.8452C40.2013 43.8452 41.1746 43.8275 42.1479 43.863C42.2696 43.863 42.3739 44.0401 42.4956 44.1463C42.3739 44.2349 42.2522 44.412 42.1306 44.412C41.3832 44.4297 40.6358 44.4297 39.8189 44.4297C39.8015 44.8016 39.7841 45.1204 39.7667 45.5632C40.2186 45.5632 40.6184 45.5278 41.0008 45.5809C41.1398 45.5986 41.2615 45.7935 41.4006 45.8997C41.2789 45.9883 41.1572 46.13 41.0182 46.1477C40.6532 46.1831 40.2708 46.1654 39.8363 46.1654V47.6C40.6358 47.6 41.4179 47.5823 42.1827 47.6177C42.3391 47.6177 42.4956 47.7948 42.6694 47.9011Z" fill="#002A64"/>
<path d="M50.562 43.8629C49.7104 43.8275 48.8587 43.8629 47.9375 43.8629C47.9375 45.2444 47.9375 46.4842 47.9549 47.7594C47.9549 47.901 48.1635 48.025 48.2677 48.149C48.3546 48.025 48.5111 47.901 48.5285 47.7771C48.5632 47.352 48.5458 46.9092 48.5458 46.3248C49.328 46.3248 49.9537 46.3602 50.5794 46.307C51.3268 46.2539 51.7266 45.758 51.7266 45.0141C51.7092 44.288 51.2747 43.8806 50.562 43.8629ZM50.3535 45.6694C49.7973 45.758 49.2237 45.7049 48.6154 45.7049V44.4297C49.2585 44.4297 49.832 44.3588 50.3882 44.4651C50.6489 44.5182 50.8401 44.8724 51.0661 45.1027C50.8401 45.2975 50.6142 45.634 50.3535 45.6694Z" fill="#002A64"/>
</svg>
