<svg width="90" height="87" viewBox="0 0 90 87" fill="none" xmlns="http://www.w3.org/2000/svg">
<path d="M0.617188 25.7859C0.617188 20.3594 4.42023 15.6756 9.73104 14.5613L75.5606 0.748832C82.687 -0.74645 89.3848 4.69179 89.3848 11.9734V75.031C89.3848 81.3651 84.2499 86.5 77.9158 86.5H12.0862C5.75204 86.5 0.617188 81.3651 0.617188 75.031V25.7859Z" stroke="#002A64"/>
<path d="M58.7064 56.3816C58.1665 56.6529 57.6501 56.9109 57.1164 57.1797C57.7465 58.5385 57.3734 59.6236 56.1985 60.5435C56.6198 61.3645 56.6136 62.2048 56.1009 63.0042C55.5858 63.8072 54.821 64.1905 53.8413 64.1725C53.577 65.5143 52.8308 66.3571 51.3717 66.5018C51.3297 66.6838 51.2927 66.8707 51.2432 67.0552C50.8257 68.6285 49.1912 69.3483 47.7235 68.5912C47.0477 68.2415 46.3942 67.8497 45.69 67.4542C45.1576 68.3006 44.5176 68.989 43.4391 68.9999C42.3927 69.0095 41.628 68.5043 41.1078 67.6495C39.3671 68.08 38.4579 67.6809 37.6079 66.1328C35.7338 66.1618 34.7911 65.36 34.5687 63.5371C34.3563 63.472 34.1302 63.4213 33.9189 63.337C32.4636 62.7594 31.9385 61.262 32.6946 59.9057C32.7564 59.7948 32.7712 59.5765 32.7008 59.4885C31.9657 58.5626 31.2096 57.6535 30.4301 56.7047C29.9705 57.2026 29.4454 57.5945 28.7672 57.5643C28.3076 57.5438 27.8147 57.4377 27.4095 57.2328C26.3458 56.6926 25.3167 56.085 24.2826 55.4894C23.1473 54.8359 22.789 53.6038 23.4413 52.4934C25.3303 49.2719 27.239 46.0613 29.1415 42.8482C29.2107 42.7313 29.2737 42.5854 29.3812 42.5215C29.9248 42.1948 29.8667 41.6836 29.8655 41.1724C29.8581 36.7923 29.8606 32.4146 29.8606 28.0356C29.8606 27.2062 30.0706 27 30.928 27C40.0812 27 49.2344 27 58.3877 27C59.2821 27 59.4847 27.1953 59.4847 28.0525C59.4847 32.5653 59.4872 37.0792 59.4798 41.5919C59.4798 41.8933 59.5243 42.1248 59.785 42.337C60.0024 42.5142 60.1605 42.7723 60.3051 43.017C62.1335 46.0986 63.9557 49.1839 65.778 52.2703C66.5958 53.6556 66.2722 54.8142 64.8489 55.6112C63.9817 56.097 63.1157 56.5877 62.2496 57.076C60.7511 57.9236 59.7763 57.7428 58.7064 56.3816ZM31.3628 41.7065C31.6272 41.8029 31.8866 41.8632 32.109 41.985C33.2481 42.6131 34.3871 43.2425 35.5077 43.9019C36.223 44.3227 36.5837 44.9798 36.5318 45.796C36.5084 46.1637 36.6554 46.2819 36.9729 46.3868C38.0366 46.7364 39.0966 47.1029 40.1467 47.4899C40.4704 47.6093 40.6915 47.6045 40.9608 47.3585C42.347 46.095 43.9753 45.6887 45.8309 46.0854C47.2924 46.3976 48.7687 46.6472 50.2722 46.5435C51.1209 46.4844 51.9635 46.3361 52.79 46.23C52.8283 44.9581 53.0457 44.3746 53.7499 43.961C55.1286 43.152 56.5346 42.3889 57.9714 41.5835C57.9714 37.2866 57.9714 32.886 57.9714 28.4733C49.085 28.4733 40.2319 28.4733 31.3616 28.4733C31.3628 32.9089 31.3628 37.3119 31.3628 41.7065ZM44.6782 63.0633C46.2806 63.7191 46.6734 64.3666 46.5462 66.0677C46.54 66.157 46.6215 66.2932 46.7031 66.3414C47.2961 66.6911 47.8903 67.0395 48.5018 67.3566C48.9058 67.5664 49.2789 67.4663 49.5779 67.1239C50.0226 66.6139 49.9312 66.0328 49.3308 65.6795C48.5525 65.2226 47.7594 64.7898 46.9798 64.3352C46.54 64.0784 46.4177 63.6733 46.6401 63.3056C46.86 62.9427 47.2812 62.8595 47.7309 63.0934C47.8668 63.1645 47.9966 63.2441 48.13 63.3201C49.0343 63.8349 49.9362 64.3545 50.8454 64.8609C51.3198 65.1249 51.6954 65.0767 52.0191 64.7427C52.5083 64.24 52.4416 63.6179 51.8325 63.2598C50.8825 62.7016 49.9176 62.1699 48.9627 61.6201C48.4796 61.3416 48.34 60.9606 48.5611 60.5748C48.7909 60.1745 49.2097 60.1034 49.7187 60.3807C49.8262 60.4398 49.9325 60.5013 50.0387 60.5616C51.2099 61.2259 52.3761 61.8986 53.5535 62.5521C54.0847 62.8475 54.5579 62.7124 54.8544 62.2241C55.1571 61.7262 55.0434 61.2729 54.5307 60.9474C54.3627 60.8413 54.186 60.7484 54.0131 60.6508C52.9494 60.0455 51.8795 59.4499 50.8232 58.8327C50.2697 58.5095 50.2351 57.7898 50.7787 57.5728C51.0172 57.4775 51.3964 57.5245 51.6336 57.6475C52.5973 58.1491 53.5263 58.7145 54.4788 59.2378C55.078 59.5669 55.6451 59.339 55.8773 58.7049C56.0589 58.2093 55.9008 57.8826 55.3004 57.5426C52.4898 55.9524 49.657 54.4007 46.8797 52.7574C45.9037 52.1799 45.0229 52.151 44.0556 52.6248C43.8912 52.7056 43.7035 52.755 43.5577 52.8587C43.3822 52.9841 43.1957 53.1287 43.0907 53.3084C42.772 53.8558 42.5051 54.4333 42.1901 54.983C41.6403 55.9439 40.7557 56.4479 39.676 56.6456C38.4035 56.8783 37.4881 56.1368 37.4683 54.8709C37.4646 54.6455 37.4782 54.42 37.4893 54.1945C37.5412 53.1275 37.6091 52.0618 37.6412 50.9948C37.6536 50.5897 37.787 50.2798 38.0897 50.0037C38.5209 49.6119 38.9224 49.1875 39.3671 48.7462C38.1651 48.3291 37.0112 47.9288 35.8486 47.5249C35.7375 47.7033 35.6473 47.842 35.5633 47.9831C34.3315 50.0652 33.0998 52.1474 31.8706 54.2319C31.6569 54.5948 31.2801 54.9806 31.306 55.3327C31.3319 55.6835 31.7631 56.0114 32.0287 56.3394C32.5884 57.029 33.1554 57.7114 33.746 58.43C34.0425 58.0261 34.2932 57.668 34.5613 57.322C35.1185 56.6022 35.8573 56.2779 36.7814 56.4009C37.6141 56.5118 38.2157 56.9772 38.6666 57.6367C40.6198 56.9205 41.8417 57.5957 42.4866 59.7297C43.9938 59.9382 45.2885 61.2174 44.6782 63.0633ZM57.9961 55.112C56.6742 52.8732 55.3745 50.6741 54.0761 48.4762C53.5214 47.5382 53.5189 47.5249 52.4206 47.7443C50.1252 48.2025 47.8545 48.0192 45.5974 47.5092C44.2372 47.2018 43.0277 47.4514 41.9961 48.3833C41.0807 49.2104 40.1825 50.0556 39.2831 50.8995C39.2041 50.9743 39.1361 51.0996 39.1299 51.2045C39.0607 52.4054 39.0076 53.6074 38.9434 54.8082C38.9236 55.1892 39.1188 55.2881 39.4598 55.2181C40.1257 55.0807 40.6631 54.7636 40.9818 54.156C41.3117 53.5278 41.6181 52.8876 41.9665 52.2703C42.0776 52.0726 42.2593 51.8725 42.4606 51.7688C42.9634 51.512 43.4897 51.2962 44.0173 51.0888C45.1798 50.6343 46.2744 50.7392 47.3702 51.3733C50.056 52.9298 52.7702 54.4417 55.4795 55.9596C55.6426 56.0512 55.9057 56.1272 56.0552 56.0621C56.6976 55.7836 57.3178 55.4496 57.9961 55.112ZM64.8045 53.6604C64.7032 53.4229 64.655 53.2638 64.5722 53.1239C62.708 49.9615 60.8412 46.8015 58.9696 43.6427C58.6743 43.1436 58.3136 43.0459 57.8083 43.3256C56.7779 43.8959 55.7525 44.4734 54.7308 45.0594C54.254 45.3318 54.1453 45.7008 54.417 46.1625C56.2961 49.3515 58.1801 52.5368 60.0691 55.7197C60.3335 56.1646 60.7128 56.267 61.1649 56.0175C62.2224 55.4339 63.2787 54.8468 64.3165 54.2307C64.5265 54.1053 64.6525 53.8437 64.8045 53.6604ZM35.1407 45.6345C34.9604 45.4403 34.8097 45.1872 34.5848 45.0533C33.6002 44.4686 32.5945 43.914 31.5938 43.357C31.0342 43.0447 30.6809 43.1315 30.3609 43.6705C28.4979 46.816 26.6386 49.9627 24.7817 53.1119C24.4704 53.6399 24.5594 53.9703 25.0931 54.2753C26.1012 54.8528 27.113 55.4243 28.1273 55.9897C28.6474 56.2791 29.0081 56.1778 29.3157 55.657C31.1787 52.5127 33.0393 49.3659 34.8961 46.2168C34.9851 46.0637 35.0345 45.8888 35.1407 45.6345ZM37.0989 64.8259C37.404 64.6065 37.6882 64.4859 37.8439 64.2761C38.8272 62.9523 39.7884 61.6129 40.7422 60.2686C41.0794 59.7936 40.9621 59.2992 40.4864 58.9797C40.0157 58.6639 39.5339 58.7181 39.1942 59.1811C38.2095 60.5218 37.2422 61.8769 36.2724 63.2284C36.0624 63.5214 35.9747 63.8662 36.223 64.1471C36.4478 64.4027 36.769 64.5776 37.0989 64.8259ZM43.3563 62.2796C43.3847 61.8227 43.087 61.4308 42.6645 61.2705C42.2345 61.1065 41.8985 61.2005 41.5884 61.6237C40.8015 62.6968 40.0244 63.7758 39.2535 64.8609C38.8816 65.3829 38.9619 65.8507 39.4487 66.1919C39.9552 66.5476 40.4382 66.4608 40.8311 65.9207C41.5971 64.8705 42.3556 63.8144 43.108 62.7546C43.2291 62.587 43.3019 62.3869 43.3563 62.2796ZM36.4404 57.7331C36.202 57.8923 35.903 58.0056 35.7375 58.219C35.1358 58.9954 34.57 59.7984 34.0091 60.6038C33.6842 61.0703 33.783 61.5417 34.2327 61.8649C34.7108 62.2085 35.2075 62.1566 35.5608 61.684C36.1489 60.8979 36.727 60.1034 37.2817 59.2932C37.7203 58.6518 37.2978 57.879 36.4404 57.7331ZM44.1519 64.3473C43.8517 64.5498 43.6009 64.6523 43.4477 64.8356C43.1092 65.2407 42.8065 65.6771 42.515 66.1172C42.2086 66.5801 42.3247 67.0564 42.7892 67.3674C43.2525 67.6785 43.7405 67.6146 44.0864 67.1709C44.3928 66.7767 44.6733 66.3643 44.9624 65.958C45.1699 65.6651 45.2737 65.3202 45.034 65.0393C44.8055 64.7717 44.4707 64.5908 44.1519 64.3473Z" fill="#002A64"/>
<path d="M48.4059 40.3166C50.222 40.3166 52.0393 40.3166 53.8554 40.3166C53.9937 40.3166 54.1333 40.3106 54.2705 40.3263C54.6646 40.3697 54.8857 40.6108 54.9191 40.9761C54.9512 41.3257 54.772 41.5934 54.4199 41.6971C54.2334 41.7525 54.0258 41.7586 53.8282 41.7586C50.2109 41.7622 46.5935 41.761 42.9762 41.761C42.8379 41.761 42.697 41.7682 42.5611 41.7477C42.1213 41.6838 41.8643 41.38 41.8928 40.9725C41.9199 40.5903 42.1979 40.3275 42.6328 40.3214C43.4642 40.3094 44.2957 40.3166 45.1259 40.3166C46.2192 40.3166 47.3126 40.3166 48.4059 40.3166Z" fill="#002A64"/>
<path d="M48.403 34.0426C46.6017 34.0426 44.8017 34.0426 43.0005 34.0413C42.8312 34.0413 42.6595 34.0474 42.4939 34.0209C42.1307 33.9618 41.9195 33.7411 41.8935 33.3819C41.8651 33.0033 42.0467 32.7405 42.4247 32.644C42.6002 32.5994 42.7904 32.5994 42.9733 32.5994C46.5906 32.597 50.2079 32.5982 53.8252 32.5982C53.887 32.5982 53.9488 32.597 54.0105 32.5982C54.5813 32.6127 54.9346 32.896 54.9285 33.3336C54.9223 33.7749 54.5825 34.0389 53.992 34.0401C52.1278 34.045 50.266 34.0426 48.403 34.0426Z" fill="#002A64"/>
<path d="M36.2539 33.4091C36.8728 32.7906 37.3855 32.271 37.9069 31.7622C38.3331 31.3475 38.7408 31.3089 39.0768 31.6332C39.4116 31.9563 39.3721 32.3662 38.957 32.7749C38.2849 33.4368 37.6104 34.0963 36.9309 34.7522C36.4738 35.1923 36.118 35.1911 35.6609 34.7558C35.352 34.4616 35.0469 34.1639 34.7467 33.8636C34.3501 33.467 34.3131 33.08 34.6318 32.7545C34.9456 32.4338 35.4002 32.4687 35.803 32.863C35.9562 33.0088 36.0748 33.1885 36.2539 33.4091Z" fill="#002A64"/>
<path d="M36.2613 41.1818C36.8765 40.5705 37.4016 40.0424 37.9353 39.524C38.3269 39.1442 38.7532 39.1068 39.0744 39.4058C39.4153 39.7253 39.3832 40.1401 38.9718 40.5464C38.2899 41.2191 37.6054 41.8907 36.9148 42.555C36.4775 42.9758 36.1254 42.9685 35.6794 42.5453C35.3483 42.2307 35.0185 41.916 34.6997 41.5893C34.3452 41.2252 34.3378 40.8128 34.6602 40.5126C34.9567 40.2353 35.3916 40.2498 35.7313 40.5705C35.9055 40.7345 36.0488 40.9334 36.2613 41.1818Z" fill="#002A64"/>
</svg>
